<?xml version="1.0" encoding="UTF-8" standalone="no"?>
<svg
   xmlns:dc="http://purl.org/dc/elements/1.1/"
   xmlns:cc="http://creativecommons.org/ns#"
   xmlns:rdf="http://www.w3.org/1999/02/22-rdf-syntax-ns#"
   xmlns:svg="http://www.w3.org/2000/svg"
   xmlns="http://www.w3.org/2000/svg"
   xmlns:sodipodi="http://sodipodi.sourceforge.net/DTD/sodipodi-0.dtd"
   xmlns:inkscape="http://www.inkscape.org/namespaces/inkscape"
   aria-hidden="true"
   focusable="false"
   data-prefix="fab"
   data-icon="phoenix-framework"
   class="svg-inline--fa fa-phoenix-framework fa-w-20"
   role="img"
   viewBox="0 0 384 448"
   version="1.1"
   id="svg3755"
   sodipodi:docname="phoenix2.svg"
   inkscape:version="0.92.4 (5da689c313, 2019-01-14)"
   width="384"
   height="448">
  <metadata
     id="metadata3761">
    <rdf:RDF>
      <cc:Work
         rdf:about="">
        <dc:format>image/svg+xml</dc:format>
        <dc:type
           rdf:resource="http://purl.org/dc/dcmitype/StillImage" />
        <dc:title></dc:title>
      </cc:Work>
    </rdf:RDF>
  </metadata>
  <defs
     id="defs3759" />
  <sodipodi:namedview
     pagecolor="#ffffff"
     bordercolor="#666666"
     borderopacity="1"
     objecttolerance="10"
     gridtolerance="10"
     guidetolerance="10"
     inkscape:pageopacity="0"
     inkscape:pageshadow="2"
     inkscape:window-width="1920"
     inkscape:window-height="986"
     id="namedview3757"
     showgrid="false"
     inkscape:zoom="1.1159029"
     inkscape:cx="398.21857"
     inkscape:cy="283.76967"
     inkscape:window-x="-11"
     inkscape:window-y="-11"
     inkscape:window-maximized="1"
     inkscape:current-layer="svg3755"
     scale-x="1"
     inkscape:pagecheckerboard="false"
     showborder="true"
     borderlayer="false"
     viewbox-width="820" />
  <path
     d="m 128.12212,313.51694 c 2.27999,-0.10243 13.67999,-1.43397 15.36,-2.25339 -1.44001,-2.66314 -26.16,-1.02429 -40.79999,-50.80421 -2.58002,-8.80878 -4.500013,-18.02731 -3.840018,-28.27008 1.740008,-26.11911 19.740008,-30.72835 31.200008,-18.94916 21.6,22.12441 37.98,93.51661 68.21999,99.86712 22.20001,4.60927 50.76001,-17.41271 64.92001,-46.50222 -0.36,-0.10241 -0.48,-0.20484 -0.6,-0.10241 -0.24,0.10241 -0.48,0.20486 -0.66001,0.30728 -19.97999,12.39376 -56.57999,9.93549 -80.81999,-15.15931 -22.56,-23.35356 -31.86,-60.12514 -31.08,-76.41117 1.08,-21.81713 13.74,-23.76326 21.53999,-20.07585 8.64001,3.99468 14.64001,18.02729 23.34,28.06522 9.36001,10.65249 19.74,14.03261 30.78,10.55007 8.94,-2.76555 20.64,-12.59863 21.9,-14.85203 -0.65999,-0.10243 -1.07999,-0.10243 -1.49999,-0.20486 -3.72,-0.61457 -7.44001,-0.81943 -11.1,-1.74129 C 168.26211,160.08007 157.64212,9.4087285 83.482123,-0.32192149 56.902114,-3.8044515 23.842119,7.9747385 1.7021184,35.527829 c -0.4799999,0.61457 -0.89999994,1.22914 -1.31999994,1.8437 0.06,0.20485 0.06,0.30728 0.12,0.51214 0.48,0 0.95999994,-0.10244 1.43999994,-0.20486 3.7799997,-1.02428 7.5000001,-0.81941 11.2200006,0.30728 14.279999,4.40441 28.619999,23.66083 33.539999,78.357301 3.180002,35.13274 -0.419998,52.03333 4.8,88.19035 11.4,78.97185 54.600002,110.21234 76.620002,108.9832 z m -82.56,-286.183341 c -0.540002,-1.02428 -0.540002,-1.22913 -0.780002,-2.04855 7.259998,-2.66313 14.52,-4.19954 21.96,-4.91654 -0.660002,15.05689 -13.32,21.81712 -21.179998,6.96509 z m 118.14,359.009531 c -25.68,1.22913 -55.2,-27.34823 -74.100005,-62.89069 -2.76,-5.1214 -10.079992,-20.69041 -11.159992,-23.96811 l 0.239993,-0.40971 c 3.959996,4.19955 15.420001,19.05158 32.880004,27.65551 14.52001,7.16995 28.86,6.45296 42.95999,-3.38011 13.62001,-9.52578 24.6,-0.51214 25.86,2.97039 -11.09999,3.89227 -12.05998,4.50684 -14.39999,8.09182 -3.06001,4.50682 -2.76,11.98407 4.2,17.61757 15.72,12.70106 37.8,-2.86797 58.32,26.01669 1.44,2.04853 4.85999,7.98937 6.06,10.95976 -0.06,0.20487 -0.18,0.30729 -0.24001,0.51214 -2.87999,-1.53642 -9.84,-7.68207 -24.11999,-9.52579 -14.82,-2.04856 -27.78,5.42867 -46.5,6.35053 z m 104.88,-258.11813 c 9.84,-5.32623 24.78,-13.72532 39.9,-3.38011 9.65999,6.65781 15.71999,19.154 19.25999,35.44004 2.10001,9.62819 3.06001,20.17826 3.06001,29.39678 -0.12,0 -0.24001,0 -0.36001,0.10241 -0.11999,-0.4097 -0.24,-0.92186 -0.29999,-1.33157 -3.00001,-22.53411 -17.94001,-44.86338 -40.56,-30.62591 -30.12,19.05158 -78.24,9.9355 -106.14,-49.16535 -0.42,-0.92183 -1.44,-1.74127 -0.78,-3.27771 0.06,-0.20485 1.25999,0.61457 1.8,1.33158 10.86,13.72532 22.98,22.43171 36.18,26.83609 18.3,6.24808 32.75999,2.9704 47.94,-5.32627 z m 61.61999,120.3527 c -19.44,0.20486 -20.27999,51.31635 -62.15999,65.96352 -10.92,3.78982 -23.22001,4.71169 -26.94,4.30198 v -0.40971 c 1.68,-1.53643 8.81999,-2.66314 17.81999,-17.00303 4.74001,-7.47722 9.18001,-15.4666 13.68,-23.45597 11.70001,-20.6904 24.84,-43.22454 49.14001,-39.94684 13.85999,1.8437 17.57999,8.39906 21.65999,13.00832 0.18001,0.20486 0.24001,0.51213 0.42,0.92184 -0.3,0 -0.42,0.10243 -0.54,0 -4.2,-2.76554 -8.58,-3.38011 -13.08,-3.38011 z m -7.37999,-24.6851 c -0.06,0.20486 -0.06,0.40972 -0.12001,0.61458 -17.34,-4.50684 -28.8,-8.09182 -41.09999,4.0971 -10.2,10.14036 -18.84,20.9977 -37.2,24.99239 -16.26,3.48254 -27.06,2.45827 -39.66,-8.19423 -0.18001,-0.20486 -0.36,-0.40972 -0.6,-0.61457 0,-0.20485 0.06,-0.30727 0.06,-0.51213 14.94,3.89226 21.84,5.22382 33.3,-5.94082 13.37999,-13.21319 24.06,-27.2458 42.78,-31.75261 17.75999,-4.19956 30.78,2.56069 42.54,17.31029 z m -161.28,-163.372391 c -0.36,-0.61456 -0.66001,-1.22913 -1.26001,-2.35583 4.56001,0 17.82001,-1.22913 32.04001,8.60393 11.82,8.19424 19.31999,21.50984 30.12,33.698761 6.66,7.47724 14.04,9.52577 21.83999,8.29666 2.58001,-0.40971 5.10001,-1.22915 7.68001,-1.74128 0.23999,-0.10242 0.54,0 0.9,0.30728 -0.36,0.40973 -0.72,0.92185 -1.08,1.22915 -4.86,4.09711 -10.02001,6.45294 -15.36,7.27237 -15.66,2.66312 -30.18,-3.78984 -44.04,-15.7739 -11.58,-10.140341 -21.84,-23.455961 -30.84,-39.537141 z m 222.84,244.187941 c -2.10003,3.17527 -13.62001,11.88162 -25.62001,5.42867 -7.38,-3.99468 -11.69999,-15.26173 -18.96,-24.6851 -6,-7.78452 -12.54,-8.0918 -16.86,-8.60393 0.36,-0.81944 0.54,-1.22914 0.72001,-1.434 8.87999,-9.42336 18.3,-12.49619 28.38,-6.65781 7.5,4.30198 11.51999,13.82775 18.23999,24.78753 6.48,10.65251 12.6,10.14037 13.86001,10.75493 0.06,-0.10242 0.11998,0 0.24,0.40971 z M 256.88211,445.03428 c 1.32001,1.22915 0.96,1.53642 0.90001,2.04856 -11.1,-1.43401 -20.34001,-7.78453 -28.08,-22.73898 -13.08,-25.29968 -25.01999,-28.57738 -29.16,-30.42107 0.29999,-0.20485 0.48,-0.4097 0.66,-0.4097 7.86,0.10241 15.66,0.717 23.34,3.99466 15.17999,6.55539 20.99999,26.01669 24.96,36.15702 1.91999,4.91657 4.37999,8.50153 7.37999,11.36951 z"
     id="path3753"
     inkscape:connector-curvature="0"
     style="fill:#fa572a;stroke-width:0.78394312" />
</svg>
